<?xml version="1.0" standalone="no"?><!DOCTYPE svg PUBLIC "-//W3C//DTD SVG 1.1//EN" "http://www.w3.org/Graphics/SVG/1.1/DTD/svg11.dtd"><svg t="1584577412386" class="icon" viewBox="0 0 1024 1024" version="1.1" xmlns="http://www.w3.org/2000/svg" p-id="4652" xmlns:xlink="http://www.w3.org/1999/xlink" width="72" height="72"><defs><style type="text/css"></style></defs><path d="M204.992 552h120c13.312 0 24-10.688 24-24s-10.688-24-24-24h-120c-13.312 0-24 10.688-24 24s10.688 24 24 24z m248 0h120c13.312 0 24-10.688 24-24s-10.688-24-24-24h-120c-13.312 0-24 10.688-24 24s10.688 24 24 24z m248 0h120c13.312 0 24-10.688 24-24s-10.688-24-24-24h-120c-13.312 0-24 10.688-24 24s10.688 24 24 24z m-496 135.008h120c13.312 0 24-10.688 24-24s-10.688-24-24-24h-120c-13.312 0-24 10.688-24 24s10.688 24 24 24z m248 0h120c13.312 0 24-10.688 24-24s-10.688-24-24-24h-120c-13.312 0-24 10.688-24 24s10.688 24 24 24z m248 0h120c13.312 0 24-10.688 24-24s-10.688-24-24-24h-120c-13.312 0-24 10.688-24 24s10.688 24 24 24z m-496 136h120c13.312 0 24-10.688 24-24s-10.688-24-24-24h-120c-13.312 0-24 10.688-24 24s10.688 24 24 24z m248 0h120c13.312 0 24-10.688 24-24s-10.688-24-24-24h-120c-13.312 0-24 10.688-24 24s10.688 24 24 24z m248 0h120c13.312 0 24-10.688 24-24s-10.688-24-24-24h-120c-13.312 0-24 10.688-24 24s10.688 24 24 24z m169.024-707.008h-124.992V64c0-13.312-10.688-24-24-24s-24 10.688-24 24v52H327.008V64c0-13.312-10.688-24-24-24s-24 10.688-24 24v52H154.016a94.048 94.048 0 0 0-94.016 94.016v692a94.048 94.048 0 0 0 94.016 94.016h716a94.048 94.048 0 0 0 94.016-94.016V210.016a94.048 94.048 0 0 0-94.016-94.016z m45.984 786.016c0 25.408-20.608 46.016-46.016 46.016H153.984a46.016 46.016 0 0 1-46.016-46.016V387.008h808v515.008z m0-563.008H108V210.016c0-25.408 20.608-46.016 46.016-46.016h124.992V232c0 13.312 10.688 24 24 24s24-10.688 24-24V164h370.016V232c0 13.312 10.688 24 24 24s24-10.688 24-24V164h124.992c25.408 0 46.016 20.608 46.016 46.016v128.992z" p-id="4653"></path></svg>