<?xml version="1.0" standalone="no"?><!DOCTYPE svg PUBLIC "-//W3C//DTD SVG 1.1//EN" "http://www.w3.org/Graphics/SVG/1.1/DTD/svg11.dtd"><svg t="1585379212404" class="icon" viewBox="0 0 1024 1024" version="1.1" xmlns="http://www.w3.org/2000/svg" p-id="2104" xmlns:xlink="http://www.w3.org/1999/xlink" width="72" height="72"><defs><style type="text/css"></style></defs><path d="M512 0C229.2224 0 0 229.2224 0 512s229.2224 512 512 512 512-229.2224 512-512S794.7776 0 512 0z m0 102.4a409.6 409.6 0 1 1 0 819.2 409.6 409.6 0 0 1 0-819.2z" p-id="2105" fill="#ffffff"></path><path d="M256 256m51.2 0l409.6 0q51.2 0 51.2 51.2l0 0q0 51.2-51.2 51.2l-409.6 0q-51.2 0-51.2-51.2l0 0q0-51.2 51.2-51.2Z" p-id="2106" fill="#ffffff"></path><path d="M307.2 460.8m51.2 0l307.2 0q51.2 0 51.2 51.2l0 0q0 51.2-51.2 51.2l-307.2 0q-51.2 0-51.2-51.2l0 0q0-51.2 51.2-51.2Z" p-id="2107" fill="#ffffff"></path><path d="M358.4 665.6m51.2 0l204.8 0q51.2 0 51.2 51.2l0 0q0 51.2-51.2 51.2l-204.8 0q-51.2 0-51.2-51.2l0 0q0-51.2 51.2-51.2Z" p-id="2108" fill="#ffffff"></path></svg>