<?xml version="1.0" standalone="no"?><!DOCTYPE svg PUBLIC "-//W3C//DTD SVG 1.1//EN" "http://www.w3.org/Graphics/SVG/1.1/DTD/svg11.dtd"><svg t="1584520560122" class="icon" viewBox="0 0 1024 1024" version="1.1" xmlns="http://www.w3.org/2000/svg" p-id="3059" xmlns:xlink="http://www.w3.org/1999/xlink" width="72" height="72"><defs><style type="text/css"></style></defs><path d="M 456.843 145.034 l 436.224 436.224 c 23.097 23.097 23.097 60.643 0 83.741 l -227.783 227.669 c -23.097 23.097 -60.643 23.097 -83.741 0 l -436.224 -436.224 c -11.491 -11.491 -17.749 -27.307 -17.294 -43.463 l 6.485 -221.981 c 0.91 -31.403 26.169 -56.547 57.571 -57.458 l 221.184 -5.803 c 16.384 -0.341 32.085 5.917 43.577 17.294 Z M 609.534 864.793 c 7.623 7.623 20.139 7.623 27.989 0 l 227.669 -227.669 c 7.623 -7.623 7.623 -20.139 0 -27.989 l -436.338 -436.11 c -3.755 -3.755 -9.102 -5.917 -14.45 -5.803 l -221.184 5.803 c -10.467 0.227 -18.887 8.761 -19.229 19.115 l -6.485 221.981 c -0.114 5.461 1.934 10.695 5.803 14.45 l 436.224 436.224 Z" p-id="3060"></path><path d="M 408.716 277.13 c 36.181 36.181 36.181 95.118 0 131.299 s -95.118 36.181 -131.186 0 s -36.181 -95.005 0 -131.186 s 95.005 -36.295 131.186 -0.114 Z M 305.292 380.554 c 20.821 20.821 54.727 20.821 75.435 0 c 20.821 -20.821 20.821 -54.727 0 -75.549 s -54.727 -20.821 -75.549 0 c -20.707 20.821 -20.707 54.613 0.114 75.549 Z" p-id="3061"></path></svg>