<?xml version="1.0" standalone="no"?><!DOCTYPE svg PUBLIC "-//W3C//DTD SVG 1.1//EN" "http://www.w3.org/Graphics/SVG/1.1/DTD/svg11.dtd"><svg t="1584520568462" class="icon" viewBox="0 0 1024 1024" version="1.1" xmlns="http://www.w3.org/2000/svg" p-id="3194" xmlns:xlink="http://www.w3.org/1999/xlink" width="72" height="72"><defs><style type="text/css"></style></defs><path d="M512 959.5c-60.4 0-119-11.8-174.2-35.2-53.3-22.5-101.1-54.8-142.2-95.9-41.1-41.1-73.3-88.9-95.9-142.2C76.4 631 64.5 572.4 64.5 512c0-60.4 11.8-119 35.2-174.2 22.5-53.3 54.8-101.1 95.9-142.2 7.7-7.7 20.3-7.7 28 0 7.7 7.7 7.7 20.3 0 28-77 77-119.5 179.5-119.5 288.4 0 224.9 183 407.9 407.9 407.9 224.9 0 407.9-183 407.9-407.9 0-10.9 8.9-19.8 19.8-19.8 10.9 0 19.8 8.9 19.8 19.8 0 60.4-11.8 119-35.2 174.2-22.5 53.3-54.8 101.1-95.9 142.2-41.1 41.1-88.9 73.3-142.2 95.9C631 947.6 572.4 959.5 512 959.5zM926.1 424.6c-8.8 0-16.8-5.9-19.1-14.8-46.4-180-208.9-305.6-395-305.6-72.6 0-143.8 19.3-206 55.8-9.4 5.5-21.5 2.4-27.1-7.1-5.5-9.4-2.4-21.5 7.1-27.1 68.3-40 146.4-61.2 226-61.2 51 0 101 8.5 148.6 25.3 46.1 16.2 89 39.8 127.5 70.1 38.2 30 71.1 65.7 97.7 106.2 27.1 41.2 47.1 86.2 59.4 133.8 2.7 10.6-3.6 21.4-14.2 24.1C929.4 424.4 927.8 424.6 926.1 424.6zM812.7 830c-5.1 0-10.1-1.9-14-5.8L197.3 222.9c-7.7-7.7-7.7-20.3 0-28 7.7-7.7 20.3-7.7 28 0l601.4 601.4c7.7 7.7 7.7 20.3 0 28C822.8 828.1 817.8 830 812.7 830zM939.7 529.3 512 529.3c-10.9 0-19.8-8.9-19.8-19.8 0-10.9 8.9-19.8 19.8-19.8l427.7 0c10.9 0 19.8 8.9 19.8 19.8S950.6 529.3 939.7 529.3z" p-id="3195"></path></svg>