<?xml version="1.0" standalone="no"?><!DOCTYPE svg PUBLIC "-//W3C//DTD SVG 1.1//EN" "http://www.w3.org/Graphics/SVG/1.1/DTD/svg11.dtd"><svg t="1584773302868" class="icon" viewBox="0 0 1069 1024" version="1.1" xmlns="http://www.w3.org/2000/svg" p-id="2470" xmlns:xlink="http://www.w3.org/1999/xlink" width="75.1640625" height="72"><defs><style type="text/css"></style></defs><path d="M1027.089599 927.229609 993.973711 927.229609 993.973711 430.491182C993.973711 375.701847 949.402272 331.153432 894.576342 331.153432L828.303142 331.153432C809.997459 331.153432 795.187253 345.989105 795.187253 364.260496 795.187253 382.556723 809.997459 397.392397 828.303142 397.392397L894.576342 397.392397C912.88202 397.392397 927.700516 412.194955 927.700516 430.491182L927.700516 927.229609 728.914054 927.229609 728.914054 99.337751C728.914054 44.581531 684.342615 0 629.524965 0L165.645719 0C110.861201 0 66.256631 44.581531 66.256631 99.337751L66.256631 927.229609 33.132457 927.229609C14.826775 927.229609 0.016566 942.073562 0.016566 960.336673 0.016566 978.6329 14.826775 993.468572 33.132457 993.468572L1027.089599 993.468572C1045.395282 993.468572 1060.246906 978.6329 1060.246906 960.336673 1060.246906 942.073562 1045.395282 927.229609 1027.089599 927.229609L1027.089599 927.229609ZM132.529828 927.229609 132.529828 99.337751C132.529828 81.074639 147.373169 66.230686 165.645719 66.230686L629.524965 66.230686C647.830648 66.230686 662.640858 81.074639 662.640858 99.337751L662.640858 927.229609 132.529828 927.229609 132.529828 927.229609ZM496.978574 331.153432 298.192113 331.153432C279.886431 331.153432 265.076223 345.989105 265.076223 364.260496 265.076223 382.556723 279.886431 397.392397 298.192113 397.392397L496.978574 397.392397C515.284253 397.392397 530.127596 382.556723 530.127596 364.260496 530.127596 345.989105 515.284253 331.153432 496.978574 331.153432M496.978574 165.576716 298.192113 165.576716C279.886431 165.576716 265.076223 180.412389 265.076223 198.675501 265.076223 216.971728 279.886431 231.815681 298.192113 231.815681L496.978574 231.815681C515.284253 231.815681 530.127596 216.971728 530.127596 198.675501 530.127596 180.412389 515.284253 165.576716 496.978574 165.576716M496.978574 496.730148 298.192113 496.730148C279.886431 496.730148 265.076223 511.574101 265.076223 529.837212 265.076223 548.133438 279.886431 562.96911 298.192113 562.96911L496.978574 562.96911C515.284253 562.96911 530.127596 548.133438 530.127596 529.837212 530.127596 511.574101 515.284253 496.730148 496.978574 496.730148M496.978574 662.315142 298.192113 662.315142C279.886431 662.315142 265.076223 677.117698 265.076223 695.413929 265.076223 713.710156 279.886431 728.545828 298.192113 728.545828L496.978574 728.545828C515.284253 728.545828 530.127596 713.710156 530.127596 695.413929 530.127596 677.117698 515.284253 662.315142 496.978574 662.315142" p-id="2471"></path></svg>