<?xml version="1.0" standalone="no"?><!DOCTYPE svg PUBLIC "-//W3C//DTD SVG 1.1//EN" "http://www.w3.org/Graphics/SVG/1.1/DTD/svg11.dtd"><svg t="1584773317382" class="icon" viewBox="0 0 1024 1024" version="1.1" xmlns="http://www.w3.org/2000/svg" p-id="3202" xmlns:xlink="http://www.w3.org/1999/xlink" width="72" height="72"><defs><style type="text/css"></style></defs><path d="M921.14 1022.581c-6.505 0-12.455-2.491-17.021-7.197l-110.71-113.892c-5.397-5.674-7.749-13.563-6.227-21.173 1.522-7.612 6.781-14.115 13.978-17.021 49.681-20.896 81.787-69.194 81.787-123.027v-556.733c0-73.484-59.783-133.406-133.406-133.406h-489.2c-73.484 0-133.406 59.783-133.406 133.406v556.594c0 73.484 59.783 133.406 133.406 133.406h389.007c3.182 0.139 76.667 2.076 125.657 34.182 10.933 7.197 13.978 21.865 6.781 32.798-4.428 6.642-11.763 10.655-19.79 10.655-4.567 0-9.134-1.383-13.008-3.875-36.673-24.080-97.84-26.432-100.469-26.432h-388.177c-15.637 0-30.998-1.938-46.083-5.951l-92.581 95.902c-4.428 4.705-10.517 7.197-17.021 7.197-6.227 0-12.039-2.353-16.468-6.642-4.567-4.428-7.058-10.241-7.197-16.607-0.139-6.366 2.214-12.317 6.642-16.883l79.85-82.756c-54.386-32.66-88.014-91.613-88.014-154.994v-556.594c0-99.638 81.095-180.734 180.734-180.734h489.2c99.638 0 180.734 81.095 180.734 180.734v556.594c0 61.306-30.307 117.353-81.095 150.842l88.845 91.474c4.428 4.567 6.781 10.517 6.642 16.883s-2.629 12.178-7.197 16.607c-4.151 4.29-9.964 6.642-16.192 6.642zM767.807 829.53c-40.686 0-73.899-33.074-73.899-73.899 0-40.686 33.074-73.899 73.899-73.899 40.686 0 73.899 33.074 73.899 73.899 0 40.686-33.074 73.899-73.899 73.899zM767.807 729.060c-14.67 0-26.571 11.901-26.571 26.571s11.901 26.571 26.571 26.571c14.67 0 26.571-11.901 26.571-26.571 0-14.67-11.901-26.571-26.571-26.571zM237.644 829.53c-40.686 0-73.761-33.213-73.761-73.899s33.074-73.899 73.899-73.899c40.686 0 73.899 33.074 73.899 73.899-0.139 40.686-33.351 73.899-74.037 73.899zM237.644 729.060c-14.67 0-26.571 11.901-26.571 26.571s11.901 26.571 26.571 26.571c14.67 0 26.571-11.901 26.571-26.571 0-14.67-11.901-26.571-26.571-26.571zM266.705 661.665c-60.614 0-109.879-49.266-109.879-109.879v-358.701c0-60.614 49.266-109.879 109.879-109.879h477.299c60.614 0 109.879 49.266 109.879 109.879v358.561c0 60.614-49.266 109.879-109.879 109.879h-477.299zM266.705 130.396c-34.596 0-62.689 28.093-62.689 62.689v358.561c0 34.596 28.093 62.689 62.551 62.689h477.299c34.596 0 62.689-28.093 62.689-62.689v-358.561c0-34.596-28.093-62.689-62.689-62.689h-477.161z" p-id="3203"></path></svg>