<?xml version="1.0" standalone="no"?><!DOCTYPE svg PUBLIC "-//W3C//DTD SVG 1.1//EN" "http://www.w3.org/Graphics/SVG/1.1/DTD/svg11.dtd"><svg t="1584773191982" class="icon" viewBox="0 0 1024 1024" version="1.1" xmlns="http://www.w3.org/2000/svg" p-id="8620" xmlns:xlink="http://www.w3.org/1999/xlink" width="72" height="72"><defs><style type="text/css"></style></defs><path d="M808.262 606.255a20.945 20.945 0 0 1-8.844 2.094v264.146a23.273 23.273 0 0 1-23.273 23.272H239.71a23.273 23.273 0 0 1-23.273-23.272v-256a20.48 20.48 0 0 1-6.981-3.259c-172.219-101.469-152.437-116.363-154.299-128a26.298 26.298 0 0 1 4.19-19.781c-5.353 6.749 135.214-241.339 186.181-295.564 38.4-42.356 150.11-41.658 160.117-41.426a23.273 23.273 0 0 1 21.876 17.222s11.404 76.335 77.964 76.335 99.607-76.102 99.607-77.033a23.273 23.273 0 0 1 21.876-16.29c40.96 0 139.637 6.981 165.702 42.123 34.211 45.149 184.786 271.36 177.106 313.25-1.862 10.706 15.592 38.633-161.513 122.183z m-50.967-405.877c-8.379-10.473-61.44-21.178-116.364-23.273a145.687 145.687 0 0 1-135.68 93.091c-79.826 0-103.098-58.181-116.364-93.09-34.909 1.396-94.952 9.309-111.243 26.763-53.295 55.156-178.27 284.858-171.52 274.618a1233.455 1233.455 0 0 0 111.243 85.411V453.353a23.273 23.273 0 0 1 44.684 0v395.636h492.684V453.353a23.273 23.273 0 0 1 44.683 0v105.192a576.698 576.698 0 0 0 124.277-83.549 2216.495 2216.495 0 0 0-166.4-274.618z m-72.379 602.298H331.404a23.273 23.273 0 0 1 0-46.545h353.512a23.273 23.273 0 0 1 0 46.545zM498.735 360.495c-88.437 0-151.506-79.826-153.135-84.248a23.273 23.273 0 0 1 12.335-30.254 21.644 21.644 0 0 1 28.16 11.869 156.393 156.393 0 0 0 112.174 55.156 188.276 188.276 0 0 0 136.844-53.993 23.273 23.273 0 0 1 27.462-14.661 23.273 23.273 0 0 1 13.73 29.556c-9.774 38.4-80.523 86.342-176.407 86.342z" p-id="8621"></path></svg>