<?xml version="1.0" standalone="no"?><!DOCTYPE svg PUBLIC "-//W3C//DTD SVG 1.1//EN" "http://www.w3.org/Graphics/SVG/1.1/DTD/svg11.dtd"><svg t="1584751309872" class="icon" viewBox="0 0 1024 1024" version="1.1" xmlns="http://www.w3.org/2000/svg" p-id="1727" xmlns:xlink="http://www.w3.org/1999/xlink" width="72" height="72"><defs><style type="text/css"></style></defs><path d="M511.999488 958.566732c-246.632143 0-446.566732-199.933565-446.566732-446.566732 0-246.632143 199.934588-446.565708 446.566732-446.565708 246.630097 0 446.565708 199.933565 446.565708 446.565708C958.564173 758.633167 758.629585 958.566732 511.999488 958.566732zM603.789031 199.640899c-2.683109 0-4.064572 0.180102-4.064572 0.180102-2.784416 0.344854-5.548366 1.691525-7.436366 3.738138-27.821649 30.266327-57.879222 45.617967-89.318258 45.617967-47.133483 0-82.662675-34.679847-82.995249-35.017538-2.217505-2.217505-5.245468-3.463891-8.405437-3.463891-116.892267 0-228.40399 186.898691-233.093802 194.85285-2.440585 4.136204-2.044566 9.323343 1.000793 13.06455l78.186733 95.903234c3.900843 4.776793 10.942213 5.737678 16.040325 2.184759l60.089563-42.122353-7.798617 303.899428c0.105401 4.007267 2.529613 7.679913 6.386454 9.667174 3.867074 1.971911 8.570189 1.959631 12.418844-0.038886 22.61916-11.729136 60.140729-14.727423 87.899956-14.727423 44.820811 0 83.077114 15.915481 88.2356 18.141172 35.567054 21.782096 67.557652 32.816406 95.067192 32.816406 46.990221 0 70.897723-32.875758 76.976162-50.253544 0.427742-1.210571 0.645706-2.486634 0.645706-3.77293L693.624059 452.379111l80.510662 53.524031c5.352915 3.564175 12.594853 2.228761 16.275685-2.977821l54.335513-76.722382c2.625804-3.693112 2.821255-8.5487 0.532119-12.44238C725.015 209.953779 623.010815 199.640899 603.789031 199.640899z" p-id="1728"></path></svg>