<?xml version="1.0" standalone="no"?><!DOCTYPE svg PUBLIC "-//W3C//DTD SVG 1.1//EN" "http://www.w3.org/Graphics/SVG/1.1/DTD/svg11.dtd"><svg t="1584773281605" class="icon" viewBox="0 0 1024 1024" version="1.1" xmlns="http://www.w3.org/2000/svg" p-id="1729" xmlns:xlink="http://www.w3.org/1999/xlink" width="72" height="72"><defs><style type="text/css"></style></defs><path d="M7.697 443.705v176.132c0 196.999 175.67 267.306 238.954 286.242v70.67h533.056v-70.506c63.623-18.667 238.956-88.997 238.956-297.105V443.704H7.697z m955.819 165.433c0 206.406-207.479 246.953-216.256 248.569l-22.697 4.056v59.844H301.796l-0.056-59.466-22.257-4.363c-8.85-1.738-216.645-44.73-216.645-237.94v-29.08h900.677v18.38z m0-55.15H62.84v-55.143h900.677l-0.001 55.143zM430.463 112.856h569.816V168H430.463v-55.143z m-404.386 0h55.145V168H26.077v-55.143z m0 110.283h55.145v55.143H26.077v-55.143z m404.386 0h569.816v55.143H430.463v-55.143zM91.543 420.13c57.871-12.312 78.39-58.248 81.384-83.45l0.19-207.162c0-34.474 37.983-44.167 43.098-44.23l-0.008-55.141c-33.18 0-98.231 30.003-98.231 99.37v201.755c-1.077 5.34-7.477 28.449-37.905 34.92l11.472 53.938z m110.287 0c57.872-12.312 78.388-58.248 81.386-83.45l0.189-207.162c0-34.474 37.985-44.167 43.1-44.23l-0.01-55.141c-33.181 0-98.234 30.003-98.234 99.37v201.755c-1.078 5.34-7.474 28.449-37.903 34.92l11.472 53.938z m110.285 0c57.875-12.312 78.39-58.248 81.388-83.45l0.187-207.162c0-34.474 37.983-44.167 43.1-44.23l-0.009-55.141c-33.18 0-98.233 30.003-98.233 99.37v201.755c-1.078 5.34-7.475 28.449-37.903 34.92l11.47 53.938z" p-id="1730"></path></svg>